<svg id="Star" xmlns="http://www.w3.org/2000/svg" width="13.956" height="13.333" viewBox="0 0 13.956 13.333">
  <path id="Path" d="M7.556.358l1.658,3.36A.643.643,0,0,0,9.7,4.07l3.707.539a.643.643,0,0,1,.356,1.1L11.079,8.32a.644.644,0,0,0-.185.569l.633,3.693a.643.643,0,0,1-.933.678L7.277,11.516a.644.644,0,0,0-.6,0L3.362,13.259a.643.643,0,0,1-.933-.678l.633-3.693a.642.642,0,0,0-.185-.569L.194,5.705a.643.643,0,0,1,.356-1.1L4.258,4.07a.643.643,0,0,0,.484-.352L6.4.358A.645.645,0,0,1,7.556.358Z" fill="#fc7614"/>
</svg>
